<?xml version="1.0" encoding="UTF-8" standalone="no"?>
<svg width="26px" height="26px" viewBox="0 0 26 26" version="1.1" xmlns="http://www.w3.org/2000/svg" xmlns:xlink="http://www.w3.org/1999/xlink" xmlns:sketch="http://www.bohemiancoding.com/sketch/ns">
    <!-- Generator: Sketch 3.5.1 (25234) - http://www.bohemiancoding.com/sketch -->
    <title>Group 2</title>
    <desc>Created with Sketch.</desc>
    <defs>
        <filter x="-50%" y="-50%" width="200%" height="200%" filterUnits="objectBoundingBox" id="filter-1">
            <feOffset dx="0" dy="-1" in="SourceAlpha" result="shadowOffsetOuter1"></feOffset>
            <feGaussianBlur stdDeviation="0.5" in="shadowOffsetOuter1" result="shadowBlurOuter1"></feGaussianBlur>
            <feColorMatrix values="0 0 0 0 0.85   0 0 0 0 0.85   0 0 0 0 0.85  0 0 0 0.7 0" in="shadowBlurOuter1" type="matrix" result="shadowMatrixOuter1"></feColorMatrix>
            <feOffset dx="0" dy="1" in="SourceAlpha" result="shadowOffsetInner1"></feOffset>
            <feGaussianBlur stdDeviation="0.75" in="shadowOffsetInner1" result="shadowBlurInner1"></feGaussianBlur>
            <feComposite in="shadowBlurInner1" in2="SourceAlpha" operator="arithmetic" k2="-1" k3="1" result="shadowInnerInner1"></feComposite>
            <feColorMatrix values="0 0 0 0 0   0 0 0 0 0   0 0 0 0 0  0 0 0 0.35 0" in="shadowInnerInner1" type="matrix" result="shadowMatrixInner1"></feColorMatrix>
            <feMerge>
                <feMergeNode in="shadowMatrixOuter1"></feMergeNode>
                <feMergeNode in="SourceGraphic"></feMergeNode>
                <feMergeNode in="shadowMatrixInner1"></feMergeNode>
            </feMerge>
        </filter>
    </defs>
    <g id="Welcome" stroke="none" stroke-width="1" fill="none" fill-rule="evenodd" sketch:type="MSPage">
        <g id="Membership-Type---With-Modal" sketch:type="MSArtboardGroup" transform="translate(-327.000000, -169.000000)" filter="url(#filter-1)" fill="#C9C9CC">
            <g id="Group-2" sketch:type="MSLayerGroup" transform="translate(328.000000, 171.000000)">
                <path d="M12.0681203,10.1475336 L9.00698572,7.08639893 C8.44377755,6.52319075 7.53672045,6.52841186 6.97404436,7.09108796 C6.40744539,7.65768693 6.40926891,8.56394291 6.96935533,9.12402933 L10.0304899,12.1851639 L6.96406027,15.2515936 C6.4008521,15.8148018 6.40607321,16.7218589 6.9687493,17.284535 C7.53534827,17.851134 8.44160425,17.8493104 9.00169067,17.289224 L12.0681203,14.2227943 L15.129255,17.283929 C15.6924631,17.8471371 16.5995202,17.841916 17.1621963,17.2792399 C17.7287953,16.712641 17.7269718,15.806385 17.1668854,15.2462986 L14.1057507,12.1851639 L17.1615903,9.12932438 C17.7247985,8.5661162 17.7195774,7.65905911 17.1569013,7.09638301 C16.5903023,6.52978404 15.6840463,6.53160757 15.1239599,7.09169398 L12.0681203,10.1475336 Z M11.7885458,23.6994304 C18.2991799,23.6994304 23.5770917,18.4215186 23.5770917,11.9108845 C23.5770917,5.40025041 18.2991799,0.122338657 11.7885458,0.122338657 C5.27791175,0.122338657 0,5.40025041 0,11.9108845 C0,18.4215186 5.27791175,23.6994304 11.7885458,23.6994304 Z" id="Oval-6" sketch:type="MSShapeGroup"></path>
            </g>
        </g>
    </g>
</svg>