<?xml version="1.0" encoding="utf-8"?>
<!-- Generator: Adobe Illustrator 19.2.0, SVG Export Plug-In . SVG Version: 6.00 Build 0)  -->
<svg version="1.1" id="Layer_1" xmlns="http://www.w3.org/2000/svg" xmlns:xlink="http://www.w3.org/1999/xlink" x="0px" y="0px"
	 viewBox="0 0 566.9 155.8" style="enable-background:new 0 0 566.9 155.8;" xml:space="preserve">
<style type="text/css">
	.st0{fill:#0073AE;}
	.st1{fill:#231F20;}
	.st2{fill:#FFFFFF;}
	.st3{fill:none;}
	.st4{enable-background:new    ;}
	.st5{fill:#999898;}
</style>
<g>
	<path class="st0" d="M170.3,78.8v16.7H159V41.3h11.3v3.4c1.9-1.9,3.8-3.1,5.5-3.6s3.8-0.7,6.2-0.7c4.3,0,7.9,1.9,10.7,5.8
		c2.8,3.8,4.2,8.8,4.2,14.8s-1.5,10.6-4.3,13.8c-2.7,3.1-6.2,5-10.6,5.9c-0.7,0.1-3,0.1-7-0.2C173.4,80.4,171.9,79.8,170.3,78.8z
		 M177.8,49.5c-2.4,0-4.3,1-5.6,3s-1.9,4.8-1.9,8.5v9.7c0.4,1.2,2.9,1.7,7.5,1.7c2.4,0,4.3-1,5.5-2.9c1.3-2,1.9-4.8,1.9-8.5
		c0-3.7-0.6-6.6-1.9-8.5C182.1,50.5,180.2,49.5,177.8,49.5z"/>
	<path class="st0" d="M205.4,26.1h11.3v10.2h-11.3V26.1z M205.4,41.3h11.3v39.2h-11.3V41.3z"/>
	<path class="st0" d="M241.2,55.8c-1.6,2.5-2.3,4.8-2.3,6.7v18h-11.3V41.3h11.3v6.4c1.4-2.6,3.1-4.4,5-5.6c1.9-1.2,4.1-1.8,6.8-1.8
		c0.4,0,0.8,0,1.2,0c0.2,0,0.8,0.1,1.9,0.2V49C248.3,48.8,244.1,51,241.2,55.8z"/>
	<path class="st0" d="M292.5,78.3c-4.5,2.3-10,3.4-16.5,3.4c-8,0-13.3-1.2-15.7-3.7c-2.3-2.3-3.4-5.4-3.4-9.2c0-4.6,1.4-8,4.3-10.1
		c2.8-2.1,7.3-3.2,13.4-3.2h6.6v-1c0-2-0.7-3.4-2.1-4.4c-1.4-0.9-3.6-1.4-6.6-1.4c-2.4,0-4.7,0.3-6.7,0.8c-2.1,0.5-4,1.3-5.8,2.4
		v-9.5c2.4-0.7,4.9-1.1,7.3-1.5c2.6-0.3,5-0.5,7.3-0.5c6.4,0,11,1.4,13.8,4.2s4.2,7.3,4.2,13.6L292.5,78.3L292.5,78.3z M275.3,62.9
		c-2.3,0-4.1,0.4-5.3,1.3c-1.2,0.9-1.8,2.2-1.8,3.9c0,1.5,0.5,2.8,1.4,3.7c0.7,0.7,2.1,1.2,4,1.4c3.5,0.3,6,0.1,7.4-0.7
		c0,0,0.1-2.8,0.1-8.2v-1.4C281.2,62.9,275.3,62.9,275.3,62.9z"/>
	<path class="st0" d="M298.6,50.3v-1.6l15.1-18.5h1.7v11.1H327v9h-11.6v16.6c0,1.8,0.3,3,0.9,3.7c0.7,0.7,1.9,1,3.9,1h5.8v9h-9.7
		c-4.5,0-7.6-1-9.5-3.1S304,71.9,304,67V50.3H298.6z"/>
	<path class="st0" d="M369.3,60.8v3.6H343c0.3,2.9,1.2,5.1,2.9,6.6c1.6,1.5,3.9,2.2,6.9,2.2c2.4,0,4.8-0.4,7.3-1.2
		c2.5-0.8,5-2,7.6-3.5v9.7c-2.7,1.1-5.3,2-8,2.5c-2.7,0.6-5.3,0.9-8,0.9c-6.4,0-11.4-1.8-14.9-5.4s-5.3-8.7-5.3-15.2
		c0-6.4,1.7-11.4,5.2-15.1s8.3-5.5,14.3-5.5c5.5,0,10,1.9,13.3,5.6C367.6,49.7,369.3,54.6,369.3,60.8z M357.7,56.7
		c0-2.4-0.6-4.3-1.9-5.8c-1.2-1.5-2.9-2.2-4.9-2.2c-2.2,0-3.9,0.7-5.3,2c-1.4,1.4-2.2,3.3-2.6,5.9C343.1,56.7,357.7,56.7,357.7,56.7
		z"/>
</g>
<g>
	<path class="st1" d="M385,78.5v16.9h-6.5V41.3h6.5v5.5c1.7-2.6,3.6-4.3,5.4-5.2s4.2-1.3,7.1-1.3c4.8,0,8.6,1.9,11.6,5.7
		s4.5,8.7,4.5,14.9s-1.5,11-4.5,14.4c-3,3.5-6.8,5.2-11.6,5.2c-2.9,0-4.9-0.1-6.2-0.3C390.2,80.1,388,79.5,385,78.5z M406.9,61
		c0-4.7-1-8.4-2.9-11.1c-1.9-2.7-4.6-4-8-4c-2.9,0-5.4,0.8-7.4,2.3s-3.1,4.3-3.6,8.3v15.8c3.3,2,7,3,10.9,3c3.4,0,6.1-1.2,8-3.6
		C405.9,69.2,406.9,65.7,406.9,61z"/>
	<path class="st1" d="M437.6,81.2c-5.2,0.1-9.3-1.1-12.2-3.5c-2.3-1.9-3.4-4.8-3.4-8.5c0-4.4,1.5-7.7,4.4-10s7.4-3.4,13.2-3.4h9
		v-0.6c0-3-1-5.3-2.9-6.9c-1.9-1.6-4.7-2.4-8.2-2.4c-2.2,0-4.4,0.3-6.5,0.8s-4.2,1.3-6.1,2.4v-5.9c2.4-0.9,4.6-1.6,6.9-2
		c2.2-0.5,4.4-0.7,6.5-0.7c5.7,0,9.9,1.5,12.7,4.4c2.8,2.9,4.2,7.3,4.2,13.2v0.1v19.7C450.5,80,444.7,81.1,437.6,81.2z M442.2,60.8
		c-5.2,0-8.8,0.6-10.8,1.8s-3,3.2-3,6.1c0,2.3,0.8,4.1,2.3,5.6c1.6,1.4,3.6,2.2,6.1,2.2c0.1,0,0.1,0,0.2,0c5.5,0,9.4-0.6,11.6-1.9
		c0-6.6,0-10.7,0-12.3v-1.4L442.2,60.8L442.2,60.8z"/>
	<path class="st1" d="M487.9,46.8c-0.7-0.4-1.5-0.7-2.3-0.7c-0.8-0.1-1.8,0-2.8,0.1c-3.5,0.4-6.3,2.2-8.3,5.2s-3,6.7-3,11.2v18H465
		V41.3h6.5v5.8c1.4-2.4,3.1-4.1,5.3-5.1c2.2-1,4.8-1.6,7.9-1.6c0.4,0,0.9,0,1.5,0.1c0.5,0.1,1.1,0.1,1.8,0.3L487.9,46.8L487.9,46.8z
		"/>
	<path class="st1" d="M493.2,46.4v-5.1h4.7v-4.9l6.5-6.1v11.1h13.3v5h-13.3v21.3c0,3.2,0.4,5.2,1.3,6.2c0.9,0.9,2.7,1.4,5.3,1.4h6.6
		v5.4H511c-5,0-8.4-0.9-10.3-2.8s-2.8-5.2-2.8-10.1V46.4H493.2z"/>
	<path class="st1" d="M530.5,97.7l7-17.8l-15.8-38.5h6.8L540.7,72L553,41.3h6.8l-22.5,56.4H530.5z"/>
</g>
<g id="Signet">
	<polygon class="st2" points="99.9,84.8 97.4,84.5 97,87 95.7,84.9 93.5,86.1 94.3,83.8 92,82.8 94.3,81.9 93.6,79.6 95.7,80.8 
		97.2,78.8 97.5,81.3 100,81.1 98.3,82.9 	"/>
	<polygon class="st2" points="111.1,60 108.7,59.7 108.3,62.2 106.9,60.1 104.7,61.3 105.5,58.9 103.2,58 105.5,57.1 104.8,54.8 
		107,56 108.4,54 108.7,56.5 111.2,56.3 109.5,58.1 	"/>
	<polygon class="st2" points="98.7,49.3 96.3,49.1 95.9,51.5 94.5,49.5 92.3,50.7 93.1,48.3 90.8,47.4 93.1,46.5 92.4,44.1 
		94.6,45.4 96,43.4 96.3,45.8 98.8,45.7 97.1,47.5 	"/>
	<polygon class="st2" points="85.7,64.1 83.3,63.9 82.9,66.3 81.5,64.2 79.3,65.4 80.1,63.1 77.8,62.1 80.1,61.3 79.4,58.9 
		81.6,60.2 83,58.1 83.3,60.6 85.8,60.5 84.1,62.2 	"/>
	<polygon class="st2" points="102.2,69.5 100.8,68.7 99.2,69.4 99.6,67.8 98.4,66.5 100.1,66.4 100.9,64.9 101.6,66.4 103.2,66.7 
		102,67.9 	"/>
	<g>
		<path class="st2" d="M137.7,89.2c-6.3,35.2-40,58.6-75.2,52.3c-35.2-6.3-58.6-40-52.3-75.2S50.2,7.7,85.4,14S144,54,137.7,89.2
			L137.7,89.2z"/>
		<path d="M83.8,23c-30.3-5.4-59.2,14.7-64.6,45s14.7,59.2,45,64.6c30.3,5.4,59.2-14.7,64.6-45S114,28.4,83.8,23L83.8,23z
			 M137.7,89.2c-6.3,35.2-40,58.6-75.2,52.3c-35.2-6.3-58.6-40-52.3-75.2S50.2,7.7,85.4,14S144,54,137.7,89.2L137.7,89.2z"/>
		<g>
			<polygon points="49.7,32.3 50,97.6 57.1,94.5 55.9,91.4 53.9,33 			"/>
			<path d="M43.7,45.1c0,0,60.7-23,69.6,18.7c0,0,5.7,19.6-23,26.5c0,0-19.6,4.9-21.6,4.9c-1.9,0-1.9,0-1.9,0S47.6,99,52.1,122.8
				c0,0-14.9-21.3,13-38.2c0,0,10.8-9,7.4-22.7C72.5,61.9,69.1,45.6,43.7,45.1L43.7,45.1z"/>
			<polygon points="50,92.9 49.9,104.2 57.5,96.3 			"/>
			<path d="M84.6,91.7c0,0-29.4,4.9-32.4,17.7s-3.6-19.3,15.3-20.7c18.9-1.4,1.6-0.9,1.6-0.9l18-1.6l-2.3,4.2"/>
		</g>
	</g>
	<polygon class="st2" points="83.6,62.9 81.2,63.5 81.7,66 79.7,64.5 78.1,66.4 78,64 75.5,63.9 77.4,62.3 75.9,60.3 78.3,60.7 
		78.9,58.3 80.1,60.5 82.3,59.5 81.4,61.8 	"/>
	<polygon class="st2" points="95.7,48.3 93.3,48.9 93.8,51.3 91.8,49.9 90.2,51.8 90.1,49.3 87.6,49.3 89.4,47.6 87.9,45.7 
		90.4,46.1 91,43.7 92.2,45.9 94.4,44.9 93.5,47.1 	"/>
	<polygon class="st2" points="109,59.1 106.6,59.7 107.1,62.2 105.1,60.7 103.5,62.6 103.4,60.1 100.9,60.1 102.8,58.4 101.3,56.5 
		103.7,56.9 104.3,54.5 105.5,56.7 107.8,55.7 106.8,57.9 	"/>
	<polygon class="st2" points="97.6,83.2 95.2,83.9 95.7,86.3 93.7,84.9 92.1,86.8 92,84.3 89.5,84.2 91.3,82.6 89.9,80.6 92.3,81.1 
		92.9,78.7 94.1,80.8 96.3,79.8 95.4,82.1 	"/>
	<polygon class="st2" points="100,69.5 98.4,68.9 97.1,70 97.1,68.3 95.7,67.4 97.3,66.8 97.7,65.2 98.7,66.6 100.4,66.5 99.4,67.9 
			"/>
</g>
<rect x="155" y="99.5" class="st3" width="419" height="84"/>
<g class="st4">
	<path class="st5" d="M184.3,124.6h-3v-10.8c0-3.5-1.2-5.1-3.7-5.1c-3.1,0-5,2.2-5,5.7v10.2h-3v-10.8c0-3.5-1.2-5.1-3.8-5.1
		c-3,0-4.9,2.2-4.9,5.7v10.2h-3v-18h3v2.8c1.4-2.2,3.2-3.2,5.8-3.2c2.6,0,4.5,1.4,5.4,3.9c1.5-2.7,3.5-3.9,6.3-3.9
		c3.8,0,5.9,2.7,5.9,7.6V124.6z"/>
	<path class="st5" d="M205,123.6c-2.1,0.9-4.4,1.4-6.7,1.4c-5.8,0-9.4-3.6-9.4-9.3c0-5.9,3.4-9.6,8.8-9.6c4.9,0,7.9,3.4,7.9,8.7v0.6
		c0,0.6-0.3,0.9-0.9,0.9h-12.7c0.3,4.1,2.5,6.3,6.4,6.3c2.3,0,4.4-0.6,6.5-1.7V123.6z M202.7,113.9c0-3.2-2-5.3-4.9-5.3
		c-3.3,0-5.4,2-5.7,5.3H202.7z"/>
	<path class="st5" d="M236.8,124.6h-3v-10.8c0-3.5-1.2-5.1-3.7-5.1c-3.1,0-5,2.2-5,5.7v10.2h-3v-10.8c0-3.5-1.2-5.1-3.8-5.1
		c-3,0-4.9,2.2-4.9,5.7v10.2h-3v-18h3v2.8c1.4-2.2,3.2-3.2,5.8-3.2c2.6,0,4.5,1.4,5.4,3.9c1.5-2.7,3.5-3.9,6.3-3.9
		c3.8,0,5.9,2.7,5.9,7.6V124.6z"/>
	<path class="st5" d="M242.6,99.5h3v9.8c1.2-2.1,3.1-3.2,5.8-3.2c4.4,0,7.4,3.8,7.4,9.5s-3,9.2-7.4,9.5c-2.6,0.2-7-0.3-8.7-0.5V99.5
		z M251,122.6c2.5-0.3,4.6-2.5,4.6-7c0-4.4-1.9-7-5-7c-3.2,0-5,2.9-5,7.4c0,1.9,0,5.8,0.1,6.2C247.2,122.4,249.1,122.8,251,122.6z"
		/>
	<path class="st5" d="M278.4,123.6c-2.1,0.9-4.4,1.4-6.7,1.4c-5.8,0-9.4-3.6-9.4-9.3c0-5.9,3.4-9.6,8.8-9.6c4.9,0,7.9,3.4,7.9,8.7
		v0.6c0,0.6-0.3,0.9-0.9,0.9h-12.7c0.3,4.1,2.5,6.3,6.4,6.3c2.3,0,4.4-0.6,6.5-1.7V123.6z M276.1,113.9c0-3.2-2-5.3-4.9-5.3
		c-3.3,0-5.4,2-5.7,5.3H276.1z"/>
	<path class="st5" d="M294.1,109.2c-0.7-0.4-1.4-0.4-2.4-0.3c-3.2,0.4-5.2,3.3-5.2,7.4v8.3h-3v-18h3v2.7c1.2-2.2,3.2-2.9,6.1-2.9
		c0.4,0,0.9,0,1.5,0.2V109.2z"/>
	<path class="st5" d="M309.1,109.9c-1.7-0.9-3.5-1.3-5.4-1.3c-2.9,0-4.4,0.9-4.4,2.7c0,0.7,0.3,1.2,0.8,1.6c0.5,0.4,1.6,0.8,3.2,1.1
		l1,0.2c4.2,0.9,5.8,2.4,5.8,5.3c0,3.4-2.8,5.4-7.5,5.4c-1.9,0-4-0.4-6.3-1.1v-3.1c2.2,1.1,4.3,1.7,6.4,1.7c2.8,0,4.4-1,4.4-2.7
		c0-0.8-0.3-1.4-0.8-1.9c-0.5-0.4-1.7-0.8-3.6-1.2l-1-0.2c-3.7-0.8-5.2-2.3-5.2-5.1c0-3.4,2.5-5.3,6.9-5.3c2.2,0,4.1,0.3,5.8,1
		V109.9z"/>
	<path class="st5" d="M329.8,124.6h-3v-10.8c0-3.4-1.3-5.1-4-5.1c-3.2,0-5.2,2.2-5.2,5.7v10.2h-3V99.5h3v9.8
		c1.4-2.2,3.3-3.2,5.8-3.2c4.1,0,6.3,2.6,6.3,7.6V124.6z"/>
	<path class="st5" d="M338.7,103.2h-3v-3.8h3V103.2z M338.7,124.6h-3v-18h3V124.6z"/>
	<path class="st5" d="M347.8,131.4h-3v-24.9h3v2.5c1.6-2.4,3.1-3,5.8-3c4.4,0,7.4,3.8,7.4,9.5s-3,9.1-7.4,9.1c-2.6,0-3,0-5.8-1
		V131.4z M347.8,120.7c1.5,0.9,3.2,1.4,5,1.4c3.1,0,5-2.3,5-6.6c0-4.4-1.9-7-5-7c-2.7,0-4.7,1.2-5,4.9V120.7z"/>
	<path class="st5" d="M387.5,113.2v-0.3c0-2.7-1.9-4.3-5.1-4.3c-2.1,0-4,0.5-5.8,1.5v-2.7c2.2-0.8,4.2-1.3,6.1-1.3
		c5.2,0,7.8,2.7,7.8,8.1v9.3c-2.1,1-4.8,1.3-8.1,1.4c-4.8,0.1-7.2-2.1-7.2-5.6c0-4.1,2.7-6.1,8.1-6.1H387.5z M387.5,116.2v-0.7h-2.9
		c-4.8,0-6.4,1-6.4,3.6c0,2.1,1.6,3.6,3.9,3.6h0.1c2.5,0,4.3-0.1,5.3-0.7V116.2z"/>
	<path class="st5" d="M399.4,131.4h-3v-24.9h3v2.5c1.6-2.4,3.1-3,5.8-3c4.4,0,7.4,3.8,7.4,9.5s-3,9.1-7.4,9.1c-2.6,0-3,0-5.8-1
		V131.4z M399.4,120.7c1.5,0.9,3.2,1.4,5,1.4c3.1,0,5-2.3,5-6.6c0-4.4-1.9-7-5-7c-2.7,0-4.7,1.2-5,4.9V120.7z"/>
	<path class="st5" d="M420.4,131.4h-3v-24.9h3v2.5c1.6-2.4,3.1-3,5.8-3c4.4,0,7.4,3.8,7.4,9.5s-3,9.1-7.4,9.1c-2.6,0-3,0-5.8-1
		V131.4z M420.4,120.7c1.5,0.9,3.2,1.4,5,1.4c3.1,0,5-2.3,5-6.6c0-4.4-1.9-7-5-7c-2.7,0-4.7,1.2-5,4.9V120.7z"/>
	<path class="st5" d="M441.4,124.6h-3V99.5h3V124.6z"/>
	<path class="st5" d="M450.6,103.2h-3v-3.8h3V103.2z M450.6,124.6h-3v-18h3V124.6z"/>
	<path class="st5" d="M469.8,110c-1.7-0.9-3.4-1.4-5.1-1.4c-3.9,0-6.1,2.6-6.1,7c0,4.4,2.2,7,6.1,7c1.7,0,3.4-0.5,5.1-1.4v2.7
		c-1.7,0.8-3.4,1.2-5.4,1.2c-5.4,0-8.9-3.7-8.9-9.5c0-5.9,3.4-9.5,9.1-9.5c1.8,0,3.6,0.4,5.2,1.1V110z"/>
	<path class="st5" d="M486.1,113.2v-0.3c0-2.7-1.9-4.3-5.1-4.3c-2.1,0-4,0.5-5.8,1.5v-2.7c2.2-0.8,4.2-1.3,6.1-1.3
		c5.2,0,7.8,2.7,7.8,8.1v9.3c-2.1,1-4.8,1.3-8.1,1.4c-4.8,0.1-7.2-2.1-7.2-5.6c0-4.1,2.7-6.1,8.1-6.1H486.1z M486.1,116.2v-0.7h-2.9
		c-4.8,0-6.4,1-6.4,3.6c0,2.1,1.6,3.6,3.9,3.6h0.1c2.5,0,4.3-0.1,5.3-0.7V116.2z"/>
	<path class="st5" d="M495.1,108.8h-2.2v-2.3h2.2v-2.3l3-2.8v5.1h6.1v2.3h-6.1v9.8c0,2.9,0.6,3.5,3.1,3.5h3v2.5h-3
		c-4.6,0-6-1.4-6-5.9V108.8z"/>
	<path class="st5" d="M511.1,103.2h-3v-3.8h3V103.2z M511.1,124.6h-3v-18h3V124.6z"/>
	<path class="st5" d="M524.3,106.1c5.2,0,8.3,3.5,8.3,9.5c0,5.9-3.1,9.5-8.3,9.5c-5.2,0-8.3-3.6-8.3-9.5
		C516,109.6,519.1,106.1,524.3,106.1z M524.3,108.6c-3.2,0-5.2,2.6-5.2,7s1.9,7,5.2,7c3.2,0,5.1-2.7,5.1-7
		C529.4,111.3,527.4,108.6,524.3,108.6z"/>
	<path class="st5" d="M552.5,124.6h-3v-10.8c0-3.4-1.3-5.1-4-5.1c-3.2,0-5.2,2.2-5.2,5.7v10.2h-3v-18h3v2.8c1.4-2.2,3.3-3.2,5.8-3.2
		c4.1,0,6.3,2.6,6.3,7.6V124.6z"/>
</g>
</svg>
