<?xml version="1.0" encoding="utf-8"?>
<!-- Generator: Adobe Illustrator 19.2.0, SVG Export Plug-In . SVG Version: 6.00 Build 0)  -->
<svg version="1.1" id="Layer_1" xmlns="http://www.w3.org/2000/svg" xmlns:xlink="http://www.w3.org/1999/xlink" x="0px" y="0px"
	 viewBox="0 0 566.9 155.8" style="enable-background:new 0 0 566.9 155.8;" xml:space="preserve">
<style type="text/css">
	.st0{fill:#0073AE;}
	.st1{fill:#231F20;}
	.st2{fill:#FFFFFF;}
	.st3{fill:none;}
	.st4{fill:#999898;}
	.st5{font-family:'GehenSans-Regular';}
	.st6{font-size:33px;}
</style>
<g>
	<path class="st0" d="M170.3,78.8v16.7h-11.3V41.3h11.3v3.4c1.9-1.9,3.8-3.1,5.5-3.6c1.7-0.5,3.8-0.7,6.2-0.7
		c4.3,0,7.9,1.9,10.7,5.8c2.8,3.8,4.2,8.8,4.2,14.8c0,6-1.5,10.6-4.3,13.8c-2.7,3.1-6.2,5-10.6,5.9c-0.7,0.1-3,0.1-7-0.2
		C173.4,80.4,171.9,79.8,170.3,78.8z M177.8,49.5c-2.4,0-4.3,1-5.6,3c-1.3,2-1.9,4.8-1.9,8.5v9.7c0.4,1.2,2.9,1.7,7.5,1.7
		c2.4,0,4.3-1,5.5-2.9c1.3-2,1.9-4.8,1.9-8.5c0-3.7-0.6-6.6-1.9-8.5C182.1,50.5,180.2,49.5,177.8,49.5z"/>
	<path class="st0" d="M205.4,26.1h11.3v10.2h-11.3V26.1z M205.4,41.3h11.3v39.2h-11.3V41.3z"/>
	<path class="st0" d="M241.2,55.8c-1.6,2.5-2.3,4.8-2.3,6.7v18h-11.3V41.3h11.3v6.4c1.4-2.6,3.1-4.4,5-5.6c1.9-1.2,4.1-1.8,6.8-1.8
		c0.4,0,0.8,0,1.2,0c0.2,0,0.8,0.1,1.9,0.2v8.5C248.3,48.8,244.1,51,241.2,55.8z"/>
	<path class="st0" d="M292.5,78.3c-4.5,2.3-10,3.4-16.5,3.4c-8,0-13.3-1.2-15.7-3.7c-2.3-2.3-3.4-5.4-3.4-9.2c0-4.6,1.4-8,4.3-10.1
		c2.8-2.1,7.3-3.2,13.4-3.2h6.6v-1c0-2-0.7-3.4-2.1-4.4c-1.4-0.9-3.6-1.4-6.6-1.4c-2.4,0-4.7,0.3-6.7,0.8c-2.1,0.5-4,1.3-5.8,2.4
		v-9.5c2.4-0.7,4.9-1.1,7.3-1.5c2.6-0.3,5-0.5,7.3-0.5c6.4,0,11,1.4,13.8,4.2c2.8,2.8,4.2,7.3,4.2,13.6L292.5,78.3L292.5,78.3z
		 M275.3,62.9c-2.3,0-4.1,0.4-5.3,1.3c-1.2,0.9-1.8,2.2-1.8,3.9c0,1.5,0.5,2.8,1.4,3.7c0.7,0.7,2.1,1.2,4,1.4c3.5,0.3,6,0.1,7.4-0.7
		c0,0,0.1-2.8,0.1-8.2v-1.4C281.2,62.9,275.3,62.9,275.3,62.9z"/>
	<path class="st0" d="M298.6,50.3v-1.6l15.1-18.5h1.7v11.1h11.6v9h-11.6v16.6c0,1.8,0.3,3,0.9,3.7c0.7,0.7,1.9,1,3.9,1h5.8v9h-9.7
		c-4.5,0-7.6-1-9.5-3.1c-1.9-2.1-2.8-5.6-2.8-10.5V50.3H298.6z"/>
	<path class="st0" d="M369.3,60.8v3.6H343c0.3,2.9,1.2,5.1,2.9,6.6c1.6,1.5,3.9,2.2,6.9,2.2c2.4,0,4.8-0.4,7.3-1.2
		c2.5-0.8,5-2,7.6-3.5v9.7c-2.7,1.1-5.3,2-8,2.5c-2.7,0.6-5.3,0.9-8,0.9c-6.4,0-11.4-1.8-14.9-5.4c-3.5-3.6-5.3-8.7-5.3-15.2
		c0-6.4,1.7-11.4,5.2-15.1s8.3-5.5,14.3-5.5c5.5,0,10,1.9,13.3,5.6C367.6,49.7,369.3,54.6,369.3,60.8z M357.7,56.7
		c0-2.4-0.6-4.3-1.9-5.8c-1.2-1.5-2.9-2.2-4.9-2.2c-2.2,0-3.9,0.7-5.3,2c-1.4,1.4-2.2,3.3-2.6,5.9C343.1,56.7,357.7,56.7,357.7,56.7
		z"/>
</g>
<g>
	<path class="st1" d="M385,78.5v16.9h-6.5V41.3h6.5v5.5c1.7-2.6,3.6-4.3,5.4-5.2s4.2-1.3,7.1-1.3c4.8,0,8.6,1.9,11.6,5.7
		c3,3.8,4.5,8.7,4.5,14.9c0,6.2-1.5,11-4.5,14.4c-3,3.5-6.8,5.2-11.6,5.2c-2.9,0-4.9-0.1-6.2-0.3C390.2,80.1,388,79.5,385,78.5z
		 M406.9,61c0-4.7-1-8.4-2.9-11.1c-1.9-2.7-4.6-4-8-4c-2.9,0-5.4,0.8-7.4,2.3c-2,1.5-3.1,4.3-3.6,8.3v15.8c3.3,2,7,3,10.9,3
		c3.4,0,6.1-1.2,8-3.6C405.9,69.2,406.9,65.7,406.9,61z"/>
	<path class="st1" d="M437.6,81.2c-5.2,0.1-9.3-1.1-12.2-3.5c-2.3-1.9-3.4-4.8-3.4-8.5c0-4.4,1.5-7.7,4.4-10s7.4-3.4,13.2-3.4h9
		v-0.6c0-3-1-5.3-2.9-6.9c-1.9-1.6-4.7-2.4-8.2-2.4c-2.2,0-4.4,0.3-6.5,0.8s-4.2,1.3-6.1,2.4v-5.9c2.4-0.9,4.6-1.6,6.9-2
		c2.2-0.5,4.4-0.7,6.5-0.7c5.7,0,9.9,1.5,12.7,4.4c2.8,2.9,4.2,7.3,4.2,13.2v0.1l0,19.7C450.5,80,444.7,81.1,437.6,81.2z
		 M442.2,60.8c-5.2,0-8.8,0.6-10.8,1.8c-2,1.2-3,3.2-3,6.1c0,2.3,0.8,4.1,2.3,5.6c1.6,1.4,3.6,2.2,6.1,2.2c0.1,0,0.1,0,0.2,0
		c5.5,0,9.4-0.6,11.6-1.9c0-6.6,0-10.7,0-12.3v-1.4H442.2z"/>
	<path class="st1" d="M487.9,46.8c-0.7-0.4-1.5-0.7-2.3-0.7c-0.8-0.1-1.8,0-2.8,0.1c-3.5,0.4-6.3,2.2-8.3,5.2c-2,3-3,6.7-3,11.2v18
		H465V41.3h6.5v5.8c1.4-2.4,3.1-4.1,5.3-5.1c2.2-1,4.8-1.6,7.9-1.6c0.4,0,0.9,0,1.5,0.1c0.5,0.1,1.1,0.1,1.8,0.3L487.9,46.8
		L487.9,46.8z"/>
	<path class="st1" d="M493.2,46.4v-5.1h4.7v-4.9l6.5-6.1v11.1h13.3v5h-13.3v21.3c0,3.2,0.4,5.2,1.3,6.2c0.9,0.9,2.7,1.4,5.3,1.4h6.6
		v5.4h-6.6c-5,0-8.4-0.9-10.3-2.8c-1.9-1.9-2.8-5.2-2.8-10.1V46.4H493.2z"/>
	<path class="st1" d="M530.5,97.7l7-17.8l-15.8-38.5h6.8L540.7,72L553,41.3h6.8l-22.5,56.4C537.3,97.7,530.5,97.7,530.5,97.7z"/>
</g>
<g id="Signet">
	<polygon class="st2" points="99.9,84.8 97.4,84.5 97,87 95.7,84.9 93.5,86.1 94.3,83.8 92,82.8 94.3,81.9 93.6,79.6 95.7,80.8 
		97.2,78.8 97.5,81.3 100,81.1 98.3,82.9 	"/>
	<polygon class="st2" points="111.1,60 108.7,59.7 108.3,62.2 106.9,60.1 104.7,61.3 105.5,58.9 103.2,58 105.5,57.1 104.8,54.8 
		107,56 108.4,54 108.7,56.5 111.2,56.3 109.5,58.1 	"/>
	<polygon class="st2" points="98.7,49.3 96.3,49.1 95.9,51.5 94.5,49.5 92.3,50.7 93.1,48.3 90.8,47.4 93.1,46.5 92.4,44.1 
		94.6,45.4 96,43.4 96.3,45.8 98.8,45.7 97.1,47.5 	"/>
	<polygon class="st2" points="85.7,64.1 83.3,63.9 82.9,66.3 81.5,64.2 79.3,65.4 80.1,63.1 77.8,62.1 80.1,61.3 79.4,58.9 
		81.6,60.2 83,58.1 83.3,60.6 85.8,60.5 84.1,62.2 	"/>
	<polygon class="st2" points="102.2,69.5 100.8,68.7 99.2,69.4 99.6,67.8 98.4,66.5 100.1,66.4 100.9,64.9 101.6,66.4 103.2,66.7 
		102,67.9 	"/>
	<g>
		<path class="st2" d="M137.7,89.2c-6.3,35.2-40,58.6-75.2,52.3c-35.2-6.3-58.6-40-52.3-75.2c6.3-35.2,40-58.6,75.2-52.3
			C120.6,20.3,144,54,137.7,89.2L137.7,89.2z"/>
		<path d="M83.8,23c-30.3-5.4-59.2,14.7-64.6,45c-5.4,30.3,14.7,59.2,45,64.6c30.3,5.4,59.2-14.7,64.6-45
			C134.2,57.3,114,28.4,83.8,23L83.8,23z M137.7,89.2c-6.3,35.2-40,58.6-75.2,52.3c-35.2-6.3-58.6-40-52.3-75.2
			c6.3-35.2,40-58.6,75.2-52.3C120.6,20.3,144,54,137.7,89.2L137.7,89.2z"/>
		<g>
			<polygon points="49.7,32.3 50,97.6 57.1,94.5 55.9,91.4 53.9,33 			"/>
			<path d="M43.7,45.1c0,0,60.7-23,69.6,18.7c0,0,5.7,19.6-23,26.5c0,0-19.6,4.9-21.6,4.9c-1.9,0-1.9,0-1.9,0S47.6,99,52.1,122.8
				c0,0-14.9-21.3,13-38.2c0,0,10.8-9,7.4-22.7C72.5,61.9,69.1,45.6,43.7,45.1L43.7,45.1z"/>
			<polygon points="50,92.9 49.9,104.2 57.5,96.3 			"/>
			<path d="M84.6,91.7c0,0-29.4,4.9-32.4,17.7c-3,12.8-3.6-19.3,15.3-20.7c18.9-1.4,1.6-0.9,1.6-0.9l18-1.6l-2.3,4.2"/>
		</g>
	</g>
	<polygon class="st2" points="83.6,62.9 81.2,63.5 81.7,66 79.7,64.5 78.1,66.4 78,64 75.5,63.9 77.4,62.3 75.9,60.3 78.3,60.7 
		78.9,58.3 80.1,60.5 82.3,59.5 81.4,61.8 	"/>
	<polygon class="st2" points="95.7,48.3 93.3,48.9 93.8,51.3 91.8,49.9 90.2,51.8 90.1,49.3 87.6,49.3 89.4,47.6 87.9,45.7 
		90.4,46.1 91,43.7 92.2,45.9 94.4,44.9 93.5,47.1 	"/>
	<polygon class="st2" points="109,59.1 106.6,59.7 107.1,62.2 105.1,60.7 103.5,62.6 103.4,60.1 100.9,60.1 102.8,58.4 101.3,56.5 
		103.7,56.9 104.3,54.5 105.5,56.7 107.8,55.7 106.8,57.9 	"/>
	<polygon class="st2" points="97.6,83.2 95.2,83.9 95.7,86.3 93.7,84.9 92.1,86.8 92,84.3 89.5,84.2 91.3,82.6 89.9,80.6 92.3,81.1 
		92.9,78.7 94.1,80.8 96.3,79.8 95.4,82.1 	"/>
	<polygon class="st2" points="100,69.5 98.4,68.9 97.1,70 97.1,68.3 95.7,67.4 97.3,66.8 97.7,65.2 98.7,66.6 100.4,66.5 99.4,67.9 
			"/>
</g>
<rect x="155" y="99.5" class="st3" width="419" height="84"/>
<text transform="matrix(1 0 0 1 155 124.5653)" class="st4 st5 st6">membership application</text>
</svg>
