<?xml version="1.0" encoding="UTF-8" standalone="no"?>
<svg width="107px" height="107px" viewBox="0 0 107 107" version="1.1" xmlns="http://www.w3.org/2000/svg" xmlns:xlink="http://www.w3.org/1999/xlink" xmlns:sketch="http://www.bohemiancoding.com/sketch/ns">
    <!-- Generator: Sketch 3.5.1 (25234) - http://www.bohemiancoding.com/sketch -->
    <title>Group 2</title>
    <desc>Created with Sketch.</desc>
    <defs>
        <filter x="-50%" y="-50%" width="200%" height="200%" filterUnits="objectBoundingBox" id="filter-1">
            <feOffset dx="0" dy="0" in="SourceAlpha" result="shadowOffsetOuter1"></feOffset>
            <feGaussianBlur stdDeviation="3" in="shadowOffsetOuter1" result="shadowBlurOuter1"></feGaussianBlur>
            <feColorMatrix values="0 0 0 0 0.7   0 0 0 0 0.7   0 0 0 0 0.7  0 0 0 0.588 0" in="shadowBlurOuter1" type="matrix" result="shadowMatrixOuter1"></feColorMatrix>
            <feOffset dx="0" dy="-1" in="SourceAlpha" result="shadowOffsetInner1"></feOffset>
            <feGaussianBlur stdDeviation="1.5" in="shadowOffsetInner1" result="shadowBlurInner1"></feGaussianBlur>
            <feComposite in="shadowBlurInner1" in2="SourceAlpha" operator="arithmetic" k2="-1" k3="1" result="shadowInnerInner1"></feComposite>
            <feColorMatrix values="0 0 0 0 0.592   0 0 0 0 0.592   0 0 0 0 0.592  0 0 0 0.7 0" in="shadowInnerInner1" type="matrix" result="shadowMatrixInner1"></feColorMatrix>
            <feMerge>
                <feMergeNode in="shadowMatrixOuter1"></feMergeNode>
                <feMergeNode in="SourceGraphic"></feMergeNode>
                <feMergeNode in="shadowMatrixInner1"></feMergeNode>
            </feMerge>
        </filter>
        <path d="M47.4757641,94.3083668 C73.5183005,94.3083668 94.6299475,73.1967198 94.6299475,47.1541834 C94.6299475,21.111647 73.5183005,0 47.4757641,0 C21.4332278,0 0.321580748,21.111647 0.321580748,47.1541834 C0.321580748,73.1967198 21.4332278,94.3083668 47.4757641,94.3083668 Z M47.4757641,88.0211423 C70.0459623,88.0211423 88.3427231,69.7243816 88.3427231,47.1541834 C88.3427231,24.5839852 70.0459623,6.28722445 47.4757641,6.28722445 C24.9055659,6.28722445 6.6088052,24.5839852 6.6088052,47.1541834 C6.6088052,69.7243816 24.9055659,88.0211423 47.4757641,88.0211423 Z" id="path-2"></path>
        <filter x="-50%" y="-50%" width="200%" height="200%" filterUnits="objectBoundingBox" id="filter-3">
            <feOffset dx="0" dy="0.5" in="SourceAlpha" result="shadowOffsetInner1"></feOffset>
            <feGaussianBlur stdDeviation="0" in="shadowOffsetInner1" result="shadowBlurInner1"></feGaussianBlur>
            <feComposite in="shadowBlurInner1" in2="SourceAlpha" operator="arithmetic" k2="-1" k3="1" result="shadowInnerInner1"></feComposite>
            <feColorMatrix values="0 0 0 0 1   0 0 0 0 1   0 0 0 0 1  0 0 0 0.35 0" in="shadowInnerInner1" type="matrix" result="shadowMatrixInner1"></feColorMatrix>
            <feMerge>
                <feMergeNode in="SourceGraphic"></feMergeNode>
                <feMergeNode in="shadowMatrixInner1"></feMergeNode>
            </feMerge>
        </filter>
        <linearGradient x1="85.3553391%" y1="85.3553391%" x2="15.4098853%" y2="15.4098853%" id="linearGradient-4">
            <stop stop-color="#FFFFFF" stop-opacity="0.2" offset="0%"></stop>
            <stop stop-color="#FFFFFF" stop-opacity="0" offset="100%"></stop>
        </linearGradient>
        <path d="M76.2922095,16.0224693 L16.3440501,75.9706288 C9.63763176,68.4628429 5.56093446,58.555917 5.56093446,47.6968274 C5.56093446,24.2482122 24.5697929,5.23935371 48.0184082,5.23935371 C58.8774977,5.23935371 68.7844236,9.31605101 76.2922095,16.0224693 Z" id="path-5"></path>
    </defs>
    <g id="Welcome" stroke="none" stroke-width="1" fill="none" fill-rule="evenodd" sketch:type="MSPage">
        <g id="Membership-Type---With-Modal" sketch:type="MSArtboardGroup" transform="translate(-109.000000, -79.000000)">
            <g id="Group-2" sketch:type="MSLayerGroup" transform="translate(115.000000, 85.000000)">
                <g id="Oval-2" filter="url(#filter-1)">
                    <use stroke="#B3B3B3" stroke-width="1" fill="#FFFFFF" fill-rule="evenodd" sketch:type="MSShapeGroup" xlink:href="#path-2"></use>
                    <use stroke="none" fill="none" xlink:href="#path-2"></use>
                </g>
                <path d="M47.7084784,88.2246033 C70.2625204,88.2246033 88.546184,69.9409397 88.546184,47.3868977 C88.546184,24.8328557 70.2625204,6.54919214 47.7084784,6.54919214 C25.1544364,6.54919214 6.87077289,24.8328557 6.87077289,47.3868977 C6.87077289,69.9409397 25.1544364,88.2246033 47.7084784,88.2246033 Z" id="Oval-4" fill="#2E376C" filter="url(#filter-3)" sketch:type="MSShapeGroup"></path>
                <g id="Rectangle-6">
                    <use fill="none" sketch:type="MSShapeGroup" xlink:href="#path-5"></use>
                    <use fill="url(#linearGradient-4)" fill-rule="evenodd" xlink:href="#path-5"></use>
                </g>
                <g id="signet_grey" transform="translate(4.000000, 3.000000)" sketch:type="MSShapeGroup">
                    <g id="Signet">
                        <path d="M49.5736135,33.8218262 L47.9410808,34.0722558 L48.0619507,35.7197985 L46.8481174,34.5991851 L45.6354692,35.7213785 L45.754759,34.0734408 L44.1214363,33.8249862 L45.4841844,32.8912075 L44.6602156,31.4589396 L46.2398183,31.9420239 L46.8457474,30.4054761 L47.4536515,31.9412339 L49.0328593,31.4565696 L48.2104704,32.8896275 L49.5736135,33.8218262 Z" id="Shape" fill="#FFFFFF"></path>
                        <path d="M57.8686015,23.9468405 L56.2360689,24.1972701 L56.3569387,25.8448127 L55.1431054,24.7241993 L53.9304572,25.8463927 L54.049747,24.1984551 L52.4164244,23.9500004 L53.7791724,23.0162218 L52.9552036,21.5839539 L54.5348063,22.0670382 L55.1407354,20.5304904 L55.7486396,22.0662482 L57.3278473,21.5815839 L56.5054585,23.0146418 L57.8686015,23.9468405 Z" id="Shape" fill="#FFFFFF"></path>
                        <path d="M66.558589,31.0568302 L64.9260563,31.3072598 L65.0469262,32.9548025 L63.8330929,31.8341891 L62.6204447,32.9563825 L62.7397345,31.3084448 L61.1064118,31.0599902 L62.4691599,30.1262115 L61.6451911,28.6939436 L63.2247938,29.1770279 L63.8307229,27.6404801 L64.438627,29.1762379 L66.0178348,28.6915736 L65.1954459,30.1246315 L66.558589,31.0568302 Z" id="Shape" fill="#FFFFFF"></path>
                        <path d="M59.0535998,47.6468063 L57.4210672,47.8976309 L57.541937,49.5447785 L56.3281037,48.4245601 L55.1154555,49.5463585 L55.2347453,47.8984209 L53.6014227,47.6499663 L54.9641707,46.7161876 L54.1402019,45.2839197 L55.7198046,45.766609 L56.3257337,44.2304562 L56.9336379,45.765819 L58.5128456,45.2815497 L57.6904568,46.7146076 L59.0535998,47.6468063 Z" id="Shape" fill="#FFFFFF"></path>
                        <path d="M60.3985729,38.0708351 L59.4055443,37.5498308 L58.4129107,38.0728101 L58.6013255,36.9668117 L57.7978966,36.1847128 L58.907845,36.022368 L59.4035693,35.0163045 L59.9004786,36.021578 L61.010427,36.1823428 L60.2081831,36.9656267 L60.3985729,38.0708351 Z" id="Shape" fill="#FFFFFF"></path>
                        <path d="M60.6766525,47.5729414 L59.0346398,47.4244216 L58.7577452,49.0498442 L57.8488515,47.6732712 L56.4055236,48.4711701 L56.9158629,46.9014423 L55.3927451,46.2706282 L56.9371929,45.6907691 L56.4805735,44.1072164 L57.8954615,44.9533051 L58.8509651,43.6091221 L59.0725598,45.2424447 L60.7193124,45.1500149 L59.579344,46.3409381 L60.6766525,47.5729414 Z" id="Shape" fill="#FFFFFF"></path>
                        <path d="M68.1686066,31.0121953 L66.526989,30.8624905 L66.2500944,32.4875181 L65.3412007,31.1113401 L63.8986628,31.908449 L64.4082121,30.3410912 L62.8843043,29.7090921 L64.428357,29.130813 L63.9729227,27.5444953 L65.3886007,28.390979 L66.3437093,27.046796 L66.564119,28.6805136 L68.2116616,28.5900588 L67.0712982,29.780982 L68.1686066,31.0121953 Z" id="Shape" fill="#FFFFFF"></path>
                        <path d="M59.8886286,23.9120805 L58.246616,23.7659307 L57.9689314,25.3905634 L57.0612227,24.0147804 L55.6167098,24.8114942 L56.126654,23.2425565 L54.6031412,22.6109524 L56.147984,22.0318832 L55.6913647,20.4475405 L57.1074376,21.2944193 L58.0621512,19.9490512 L58.2833509,21.5839539 L59.9297085,21.490734 L58.7897402,22.6824473 L59.8886286,23.9120805 Z" id="Shape" fill="#FFFFFF"></path>
                        <path d="M51.2136511,33.7728463 L49.5716385,33.6235365 L49.2939539,35.2481691 L48.3866402,33.8723861 L46.9421273,34.669495 L47.4520715,33.1005572 L45.9277687,32.4701382 L47.4730065,31.889489 L47.0167822,30.3051463 L48.4320651,31.1520251 L49.3871737,29.807447 L49.6079784,31.4415596 L51.2559161,31.3479448 L50.1147627,32.5400531 L51.2136511,33.7728463 Z" id="Shape" fill="#FFFFFF"></path>
                        <path d="M62.2068803,37.395781 L61.2383416,36.8325119 L60.2283281,37.3152012 L60.4609828,36.2194727 L59.6911289,35.4073539 L60.8054223,35.2900391 L61.3402515,34.3064905 L61.7948958,35.330329 L62.8953643,35.5349387 L62.0634955,36.2846477 L62.2068803,37.395781 Z" id="Shape" fill="#FFFFFF"></path>
                        <g id="Group">
                            <path d="M85.9068461,50.9095016 C81.6985221,74.4016977 59.2400395,90.0393301 35.7434984,85.8298212 C12.2473523,81.6218922 -3.38909511,59.1634096 0.820018817,35.6712135 C5.02715775,12.1758574 27.4856403,-3.45743001 50.9829714,0.752473914 C74.4787225,4.96000784 90.11359,27.4165154 85.9068461,50.9095016 L85.9068461,50.9095016 L85.9068461,50.9095016 Z" id="Shape" fill="#FFFFFF"></path>
                            <path d="M49.912128,6.72921029 C29.7177821,3.11259551 10.412975,16.5528461 6.79675519,36.745217 C3.17935041,56.9395629 16.618021,76.246345 36.8127619,79.8649348 C57.0067128,83.4783896 76.3095449,70.036559 79.9269497,49.8433981 C83.5443545,29.6514222 70.1064739,10.3462201 49.912128,6.72921029 L49.912128,6.72921029 L49.912128,6.72921029 Z M85.9048711,50.9138465 C81.6969421,74.4095976 59.2384595,90.0472301 35.7419184,85.8404862 C12.2449823,81.6305822 -3.39067511,59.1713096 0.819228818,35.6743735 C5.02636775,12.1786224 27.4860353,-3.45743001 50.9829714,0.752078915 C74.4787225,4.96000784 90.11359,27.4196754 85.9048711,50.9138465 L85.9048711,50.9138465 L85.9048711,50.9138465 Z" id="Shape" fill="#221E20"></path>
                            <g transform="translate(22.909967, 12.639982)" id="Shape" fill="#221E20">
                                <path d="M4.23992388,0.297434571 L4.45993857,43.9203816 L9.21454671,41.8470296 L8.37082792,39.7495827 L7.0693048,0.803033841 L4.23992388,0.297434571 L4.23992388,0.297434571 Z"></path>
                                <path d="M0.275314603,8.84087724 C0.275314603,8.84087724 40.7840862,-6.52618058 46.7375176,21.3003443 C46.7375176,21.3003443 50.5520271,34.3527054 31.3925797,39.0046137 C31.3925797,39.0046137 18.3007186,42.259409 17.0082805,42.270074 L15.7087323,42.283109 C15.7087323,42.283109 2.83451591,44.8454703 5.83295658,60.7204974 C5.83295658,60.7204974 -4.12260905,46.5222429 14.4945041,35.2481691 C14.4945041,35.2481691 21.6996887,29.2315378 19.4466119,20.066366 C19.4466119,20.066761 17.2164452,9.18018176 0.275314603,8.84087724 L0.275314603,8.84087724 L0.275314603,8.84087724 Z"></path>
                                <path d="M4.44453359,40.7698662 L4.40937864,48.2914453 L9.4957863,42.993713 L4.44453359,40.7698662 L4.44453359,40.7698662 Z"></path>
                                <path d="M27.5413353,39.9490574 C27.5413353,39.9490574 7.90551859,43.2311076 5.93644644,51.7469003 C3.96776928,60.2646681 3.53958989,38.8651789 16.1298017,37.9001953 C28.7188286,36.9442967 17.2089402,37.3152012 17.2089402,37.3152012 L29.2113929,36.2411977 L27.697755,39.0721586"></path>
                            </g>
                        </g>
                        <path d="M49.7778282,32.9623074 L48.1962505,33.4102368 L48.522125,35.0230195 L47.1838669,34.0687008 L46.1252685,35.325984 L46.0391586,33.6855514 L44.394381,33.6417065 L45.6259892,32.551508 L44.6325656,31.2397149 L46.2536433,31.5185845 L46.6589127,29.9275268 L47.4508865,31.3680897 L48.9491194,30.6934307 L48.3147503,32.2114135 L49.7778282,32.9623074 Z" id="Shape" fill="#FFFFFF"></path>
                        <path d="M57.8370016,23.2058215 L56.2562138,23.6541459 L56.5816934,25.2665335 L55.2434353,24.3122149 L54.1856268,25.5694981 L54.0987269,23.9286705 L52.4539493,23.8852205 L53.6851625,22.7950221 L52.692529,21.483229 L54.3128166,21.7624936 L54.7188761,20.1710409 L55.5104549,21.6116038 L57.0086878,20.9365498 L56.3755037,22.4549276 L57.8370016,23.2058215 Z" id="Shape" fill="#FFFFFF"></path>
                        <path d="M66.7454237,30.4169311 L65.164241,30.8656505 L65.4901155,32.4776431 L64.1514624,31.5233245 L63.093259,32.7810027 L63.0071491,31.1401751 L61.3623715,31.0963301 L62.5935847,30.0065267 L61.6009511,28.6947336 L63.2212388,28.9739982 L63.6269032,27.3821505 L64.4184821,28.8231084 L65.9175049,28.1476594 L65.2827408,29.6660372 L66.7454237,30.4169311 Z" id="Shape" fill="#FFFFFF"></path>
                        <path d="M59.1100847,46.5368579 L57.528902,46.9847872 L57.8543815,48.5975699 L56.5157285,47.6428563 L55.45792,48.9005344 L55.3714151,47.2601018 L53.7270325,47.2158619 L54.9578507,46.1260585 L53.9652171,44.8138703 L55.5858998,45.0931349 L55.9911692,43.5016822 L56.7831431,44.9426402 L58.2817709,44.2675861 L57.6474018,45.7859639 L59.1100847,46.5368579 Z" id="Shape" fill="#FFFFFF"></path>
                        <path d="M60.7291874,37.3570711 L59.6650589,37.0138166 L58.7806552,37.6963756 L58.7786802,36.5801072 L57.8591215,35.9496881 L58.91772,35.6016936 L59.2333245,34.5300602 L59.8921836,35.4318439 L61.007662,35.4014289 L60.3535429,36.3043976 L60.7291874,37.3570711 Z" id="Shape" fill="#FFFFFF"></path>
                    </g>
                </g>
            </g>
        </g>
    </g>
</svg>