<?xml version="1.0" encoding="utf-8"?>
<!-- Generator: Adobe Illustrator 19.2.1, SVG Export Plug-In . SVG Version: 6.00 Build 0)  -->
<svg version="1.1" id="Layer_1" xmlns:sketch="http://www.bohemiancoding.com/sketch/ns"
	 xmlns="http://www.w3.org/2000/svg" xmlns:xlink="http://www.w3.org/1999/xlink" x="0px" y="0px" viewBox="0 0 1618 436"
	 style="enable-background:new 0 0 1618 436;" xml:space="preserve">
<style type="text/css">
	.st0{fill:#FFFFFF;}
</style>
<title>Slice 1</title>
<desc>Created with Sketch.</desc>
<g>
	<path class="st0" d="M1594.9,266.7c7.2,5.9,9,13.4,8.6,22c-0.4,7.6,0,15.2-0.1,22.8c-0.1,17.3-14.8,32.3-32.2,32.5
		c-22.3,0.2-44.6,0.1-66.9,0c-8.8,0-15.3-6.6-15.3-15.4c0-41,0-82.1,0-123.1c0-9.6,5.7-15.4,15.4-15.6c12.8-0.2,25.7-0.1,38.5-0.1
		c9.3,0,18.6-0.1,27.9,0c18.2,0.3,32.5,15,32.6,33.1c0,6.6-0.3,13.2,0.1,19.8C1603.9,251.8,1602.5,260.1,1594.9,266.7z
		 M1519.7,219.7c0,11,0,21.5,0,32c17.9,0,35.4,0,52.9,0c0-10.8,0-21.3,0-32C1554.9,219.7,1537.5,219.7,1519.7,219.7z M1572.8,282.3
		c-17.9,0-35.4,0-53.1,0c0,10.6,0,21,0,31.4c17.9,0,35.4,0,53.1,0C1572.8,303.2,1572.8,293,1572.8,282.3z"/>
	<path class="st0" d="M1406.9,282.2c-18.4,0-36.2,0-54.8,0c0,1.9,0,3.7,0,5.5c0,13.8,0,27.7,0,41.5c0,9-6,14.7-15,14.7
		c-9.1,0-15.2-5.6-15.2-14.5c-0.1-36.1-0.1-72.2,0-108.4c0.1-16.8,14.7-31.3,32-31.6c17-0.3,34.1-0.3,51.1,0
		c17.7,0.3,32.2,15.4,32.3,33c0,35.4,0,70.9,0,106.3c0,9.5-5.7,15.2-15,15.2c-9.5,0-15.3-5.9-15.3-15.5c0-13.5,0-27,0-40.5
		C1406.9,286.1,1406.9,284.3,1406.9,282.2z M1406.5,252c0-11.3,0-21.8,0-32.6c-17.6,0-34.8,0-52,0c-0.6,0-1.3,0.2-2.1,0.4
		c0,10.7,0,21.2,0,31.9c1.6,0.1,3,0.2,4.3,0.3C1373.2,252,1389.7,252,1406.5,252z"/>
	<path class="st0" d="M945.1,219.1c0,11.1,0,21.5,0,32.6c1.7,0.1,3.5,0.3,5.3,0.3c20.9,0,41.9,0,62.8,0c12.3,0,18.8,8.8,15.4,20.7
		c-1.6,5.6-6,8.6-13.3,8.6c-21.3,0-42.6,0-63.8,0c-2,0-4,0-6.3,0c0,11,0,21.4,0,32.5c1.9,0,3.7,0,5.4,0c19.8,0,39.5,0,59.3,0
		c3,0,6.1,0.1,9,0.9c7.4,1.9,11.1,8.3,10.2,16.9c-0.8,7.2-6.2,12.3-13.6,12.3c-23.1,0.1-46.3,0.3-69.4-0.1
		c-17.1-0.3-31.4-15.5-31.5-32.8c-0.1-29.6,0-59.1,0-88.7c0-17.7,14.5-32.8,32.3-33c22.6-0.3,45.3-0.2,67.9,0
		c9.3,0,14.6,5.8,14.5,15.1c-0.1,8.9-5.5,14.5-14.6,14.6c-20.9,0.1-41.9,0-62.8,0C949.7,219.1,947.7,219.1,945.1,219.1z"/>
	<path class="st0" d="M778.6,251.6c18.2,0,35.7,0,53.7,0c0.1-2,0.3-3.8,0.3-5.6c0-13.5,0-27,0-40.5c0-9.5,4.9-15.1,13.5-15.7
		c10.1-0.6,15.7,3.9,16.9,13.8c0.2,2,0.3,4,0.3,6.1c0,38.2,0,76.3,0,114.5c0,2-0.1,4-0.4,6.1c-1.2,9.5-6.8,14.2-16.5,13.8
		c-8.6-0.4-13.9-6.2-13.9-15.4c-0.1-13.7,0-27.4,0-41c0-1.8,0-3.6,0-5.7c-18.1,0-35.6,0-53.7,0c-0.1,1.9-0.3,3.7-0.3,5.5
		c0,13.8,0,27.7,0,41.5c0,9.6-5.6,15-15.1,15.1c-9.6,0-15.2-5.4-15.2-15c0-41.5,0-83.1,0-124.6c0-9.4,5.4-14.6,14.9-14.6
		c9.9,0,15.3,5.1,15.4,14.7C778.6,219.9,778.6,235.5,778.6,251.6z"/>
	<path class="st0" d="M624.9,219.3c-9.3,0-17.9,0-26.5,0c-9.5,0-15.4-5.8-15.4-14.9c0-9.2,5.8-15,15.3-15c27.8-0.1,55.7-0.1,83.5,0
		c9.4,0,15.5,6,15.6,14.9c0,9.1-6.2,15-15.9,15c-8.6,0-17.2,0-26.5,0c0,2.3,0,4.3,0,6.2c0,34.2,0,68.5,0,102.7
		c0,10.4-5,15.8-14.7,15.8c-10.1,0-15.4-5.4-15.4-15.8c0-34.1,0-68.2,0-102.2C624.9,224,624.9,222,624.9,219.3z"/>
	<path class="st0" d="M1200.1,315.4c2.6,0,4.6,0,6.6,0c16.4,0,32.8,0,49.1,0c9.8,0,15.3,5.8,15.1,15.6c-0.2,7.9-4.7,12.8-12.6,12.9
		c-20.6,0.2-41.2,0.5-61.8-0.1c-16.4-0.5-26.6-11.4-26.7-27.8c-0.2-36.8-0.1-73.6,0-110.4c0-10.6,5.8-16.3,15.8-16.2
		c8.8,0.1,14.4,6.6,14.4,16.6c0,34.1,0,68.2,0,102.3C1200.1,310.3,1200.1,312.3,1200.1,315.4z"/>
</g>
<g>
	<path class="st0" d="M352.1,226.6c-17.6-1.3-28.3,14-28.3,26.9c0,16.8,12.3,28.2,27.7,28.4c15.5,0.2,27.7-12.8,27.9-27.9
		C379.6,237.8,364.4,225,352.1,226.6z"/>
	<path class="st0" d="M168.8,182.4c-39.5-0.4-71.7,30-72,71.6c0.3,40.9,31.8,70.4,68.5,71.6c44.7,1.4,75-32.6,74.8-71.8
		C239.8,213.1,209.3,182.8,168.8,182.4z M168.7,307.4c-30.4-0.2-53.2-22.6-53.7-53.4c-0.4-27.7,23-55,56.8-53.1
		c25.8,1.5,50.2,24,49.6,53.6C221.7,283.4,197.2,307.6,168.7,307.4z"/>
	<path class="st0" d="M169.8,226.4c-18-0.2-29.6,13.2-29.3,27.7c0.4,16.8,11.7,27.6,27.7,27.9c16.4,0.3,28.7-13.8,27.6-28.3
		C197.5,239.6,181.6,226.5,169.8,226.4z"/>
	<path class="st0" d="M511,211.6c0-1.8-0.2-3.7-0.6-5.4c-3-13.2-11.5-20.8-24.7-23.7c0-3.3,0.3-6.6-0.1-9.7c-1-7.7-1.1-15.8-3.6-23
		c-9-26.4-32.4-43-61.4-42.7c-44.1,0.4-88.1,0.1-132.2,0.1c-2,0-3.9,0-6.3,0c0-8.2-0.1-15.7,0.1-23.3c0-1.1,1-2.4,1.9-3.2
		c12.4-10.1,15.7-23.7,12.6-38.3c-4.7-21.9-26.3-34.6-47.9-28.3c-19.1,5.6-28.5,20.5-28.1,38.4c0.2,11.1,5.1,20.9,13.8,28.4
		c0.8,0.7,2.1,1.6,2.1,2.4c0.2,7.9,0.1,15.7,0.1,23.8c-2.8,0-4.8,0-6.8,0c-44.2,0-88.5,0.2-132.7-0.1c-28.3-0.1-51.7,17.6-59.7,43.6
		c-3.1,10-3.2,21-4.7,32.2c-12.4,1.4-24.2,14.7-24.1,28.1c0.2,36.1,0.4,72.3-0.1,108.4c-0.2,10.7,8.4,25.2,20.4,28.2
		c3.4,0.8,5.7,2,5.3,6.3c-0.3,2.4,0.4,4.9,1,7.4c6.6,31,31.3,51.6,62.6,51.6c107.4,0.2,214.8,0.1,322.2,0c6.4,0,12.9-1.1,19.2-2.5
		c14-3.1,25-11.4,33.6-22.6c6.8-8.9,11.4-19.2,11.8-30.6c0.2-5.3,1.7-8.5,7.1-10.1c10.9-3.3,19.3-15.2,19.3-26.4
		C511,284.2,511,247.9,511,211.6z M165.1,334c-40.7-1.2-76.8-35.5-76.7-79.6c0.3-45.2,35.5-80.5,80.1-80.3
		c44.7,0.2,79.7,35.2,79.8,79.8C248.6,297.8,213.6,335.4,165.1,334z M349.2,334.1c-39.9-1-80.7-36.2-77.4-85.6
		c2.7-40.4,35.7-74.3,79.6-74.6c43.3-0.3,80.8,35.6,79.7,80C432.5,297.2,394.6,335.3,349.2,334.1z"/>
	<path class="st0" d="M351.3,182.4c-40.4,0.4-69.1,30.6-71.2,67.7c-2.5,44.3,33.5,74.8,69.5,75.7c40.3,1,74.6-32.5,73.2-72
		C423.2,212.6,390.1,182,351.3,182.4z M404.8,255.7c-1.1,28.6-23.7,51.6-53,51.6c-30.6,0-53.5-24.1-53.4-53.7
		c0.1-29.3,24.3-53.3,53.7-52.6C379.6,200.3,405.9,224.7,404.8,255.7z"/>
</g>
</svg>
