<?xml version="1.0" encoding="utf-8"?>
<!-- Generator: Adobe Illustrator 19.2.0, SVG Export Plug-In . SVG Version: 6.00 Build 0)  -->
<svg version="1.1" id="Layer_1" xmlns="http://www.w3.org/2000/svg" xmlns:xlink="http://www.w3.org/1999/xlink" x="0px" y="0px"
	 viewBox="0 0 107 88" style="enable-background:new 0 0 107 88;" xml:space="preserve">
<style type="text/css">
	.st0{fill:#61B661;}
</style>
<title>Tick</title>
<path class="st0" d="M43.6,88l-0.7-0.5L1,52.2c-1.2-1-1.2-1-0.2-2.3c3.4-4.1,6.9-8.2,10.3-12.4c0.6-0.8,1-0.7,1.6-0.1
	c9.2,7.8,18.5,15.6,27.7,23.3c0.7,0.6,1,0.6,1.7-0.1c13.5-16.2,27-32.4,40.5-48.6c3.2-3.9,6.5-7.7,9.7-11.6c0.5-0.6,0.8-0.6,1.3-0.1
	c4.3,3.6,8.6,7.3,13,10.9c0.7,0.6,0.6,0.9,0.1,1.6c-7.5,8.9-15,17.9-22.4,26.8C71.1,55.3,57.9,71.1,44.7,86.9
	C44.5,87.4,44.1,87.8,43.6,88z"/>
</svg>
