<?xml version="1.0" encoding="utf-8"?>
<!-- Generator: Adobe Illustrator 19.0.1, SVG Export Plug-In . SVG Version: 6.00 Build 0)  -->
<!DOCTYPE svg PUBLIC "-//W3C//DTD SVG 1.1//EN" "http://www.w3.org/Graphics/SVG/1.1/DTD/svg11.dtd">
<svg version="1.1" id="Layer_1" xmlns="http://www.w3.org/2000/svg" xmlns:xlink="http://www.w3.org/1999/xlink" x="0px" y="0px"
	 viewBox="0 0 640 480" enable-background="new 0 0 640 480" xml:space="preserve">
<g>
	<path fill="#C1272D" d="M484,155.5c-6.5,41.6-42.5,73.5-86,73.5c-13.6,0-26.4-3.1-37.8-8.6L305.5,235l14.6-54.4
		c-5.8-11.6-9-24.8-9-38.7c0-41.3,28.8-76,67.5-84.8C358.7,50,337.3,46,315,46c-102.2,0-185,82.8-185,185h85.3l64.7-56v185l-63.5-55
		h-71.1C174,370.3,239.1,416,315,416c102.2,0,185-82.8,185-185C500,204.1,494.3,178.6,484,155.5z"/>
	<rect x="362" y="111" fill="#C1272D" width="81" height="9"/>
	<rect x="362" y="136" fill="#C1272D" width="81" height="9"/>
	<rect x="362" y="161" fill="#C1272D" width="81" height="9"/>
</g>
</svg>
